<svg xmlns="http://www.w3.org/2000/svg" xmlns:xlink="http://www.w3.org/1999/xlink" width="2000" zoomAndPan="magnify" viewBox="0 0 1440 1507.9199" height="2000" preserveAspectRatio="xMidYMid meet" version="1.0"><defs><g/><clipPath id="230226887b"><rect x="0" width="1053" y="0" height="274"/></clipPath></defs><g transform="matrix(1, 0, 0, 1, 219, 612)"><g clip-path="url(#230226887b)"><g fill="#ffffff" fill-opacity="1"><g transform="translate(0.72884, 203.45929)"><g><path d="M 54.046875 -113.5625 L 54.046875 0 L 7.640625 0 L 7.640625 -114.09375 C 7.640625 -131.570312 11.097656 -146.222656 18.015625 -158.046875 C 24.929688 -169.878906 34.664062 -178.796875 47.21875 -184.796875 C 59.78125 -190.804688 74.519531 -193.8125 91.4375 -193.8125 C 108 -193.8125 122.421875 -190.804688 134.703125 -184.796875 C 146.992188 -178.796875 156.59375 -169.878906 163.5 -158.046875 C 170.414062 -146.222656 173.875 -131.570312 173.875 -114.09375 L 173.875 0 L 127.46875 0 L 127.46875 -113.5625 C 127.46875 -121.75 125.738281 -128.570312 122.28125 -134.03125 C 118.832031 -139.488281 114.332031 -143.535156 108.78125 -146.171875 C 103.226562 -148.816406 97.175781 -150.140625 90.625 -150.140625 C 80.800781 -150.140625 72.25 -147.132812 64.96875 -141.125 C 57.6875 -135.113281 54.046875 -125.925781 54.046875 -113.5625 Z M 54.046875 -113.5625 "/></g></g></g><g fill="#ffffff" fill-opacity="1"><g transform="translate(182.51273, 203.45929)"><g><path d="M 7.921875 -95.546875 C 7.921875 -115.191406 12.054688 -132.382812 20.328125 -147.125 C 28.609375 -161.863281 40.207031 -173.328125 55.125 -181.515625 C 70.050781 -189.710938 87.4375 -193.8125 107.28125 -193.8125 C 127.289062 -193.8125 144.710938 -189.710938 159.546875 -181.515625 C 174.378906 -173.328125 185.9375 -161.863281 194.21875 -147.125 C 202.5 -132.382812 206.640625 -115.191406 206.640625 -95.546875 C 206.640625 -75.890625 202.5 -58.691406 194.21875 -43.953125 C 185.9375 -29.210938 174.378906 -17.742188 159.546875 -9.546875 C 144.710938 -1.359375 127.289062 2.734375 107.28125 2.734375 C 87.4375 2.734375 70.050781 -1.359375 55.125 -9.546875 C 40.207031 -17.742188 28.609375 -29.210938 20.328125 -43.953125 C 12.054688 -58.691406 7.921875 -75.890625 7.921875 -95.546875 Z M 54.328125 -95.546875 C 54.328125 -84.617188 56.554688 -75.0625 61.015625 -66.875 C 65.472656 -58.6875 71.65625 -52.316406 79.5625 -47.765625 C 87.476562 -43.222656 96.71875 -40.953125 107.28125 -40.953125 C 117.832031 -40.953125 127.066406 -43.222656 134.984375 -47.765625 C 142.898438 -52.316406 149.085938 -58.6875 153.546875 -66.875 C 158.003906 -75.0625 160.234375 -84.617188 160.234375 -95.546875 C 160.234375 -106.460938 158.003906 -116.015625 153.546875 -124.203125 C 149.085938 -132.390625 142.898438 -138.757812 134.984375 -143.3125 C 127.066406 -147.863281 117.832031 -150.140625 107.28125 -150.140625 C 96.71875 -150.140625 87.476562 -147.863281 79.5625 -143.3125 C 71.65625 -138.757812 65.472656 -132.390625 61.015625 -124.203125 C 56.554688 -116.015625 54.328125 -106.460938 54.328125 -95.546875 Z M 54.328125 -95.546875 "/></g></g></g><g fill="#ffffff" fill-opacity="1"><g transform="translate(397.050489, 203.45929)"><g><path d="M 7.640625 0 L 7.640625 -191.078125 L 54.046875 -191.078125 L 54.046875 -43.671875 L 57.328125 -43.671875 C 69.335938 -43.671875 79.753906 -46.851562 88.578125 -53.21875 C 97.398438 -59.59375 104.269531 -68.554688 109.1875 -80.109375 C 114.101562 -91.671875 116.5625 -105.1875 116.5625 -120.65625 L 116.5625 -191.078125 L 162.96875 -191.078125 L 162.96875 -122.84375 C 162.96875 -82.988281 152.226562 -52.550781 130.75 -31.53125 C 109.28125 -10.507812 78.160156 0 37.390625 0 Z M 7.640625 0 "/></g></g></g><g fill="#ffffff" fill-opacity="1"><g transform="translate(567.916413, 203.45929)"><g><path d="M 54.046875 -77.515625 C 54.046875 -65.328125 57.6875 -56.1875 64.96875 -50.09375 C 72.25 -44 80.800781 -40.953125 90.625 -40.953125 C 97.175781 -40.953125 103.226562 -42.316406 108.78125 -45.046875 C 114.332031 -47.773438 118.832031 -51.820312 122.28125 -57.1875 C 125.738281 -62.550781 127.46875 -69.328125 127.46875 -77.515625 L 127.46875 -191.078125 L 173.875 -191.078125 L 173.875 -76.984375 C 173.875 -59.691406 170.414062 -45.082031 163.5 -33.15625 C 156.59375 -21.238281 146.992188 -12.273438 134.703125 -6.265625 C 122.421875 -0.265625 108 2.734375 91.4375 2.734375 C 74.519531 2.734375 59.78125 -0.265625 47.21875 -6.265625 C 34.664062 -12.273438 24.929688 -21.238281 18.015625 -33.15625 C 11.097656 -45.082031 7.640625 -59.691406 7.640625 -76.984375 L 7.640625 -191.078125 L 54.046875 -191.078125 Z M 54.046875 -77.515625 "/></g></g></g><g fill="#ffffff" fill-opacity="1"><g transform="translate(749.700328, 203.45929)"><g><path d="M 54.046875 -113.5625 L 54.046875 0 L 7.640625 0 L 7.640625 -114.09375 C 7.640625 -131.570312 11.050781 -146.222656 17.875 -158.046875 C 24.695312 -169.878906 34.203125 -178.796875 46.390625 -184.796875 C 58.585938 -190.804688 72.695312 -193.8125 88.71875 -193.8125 C 100 -193.8125 110.234375 -191.898438 119.421875 -188.078125 C 128.609375 -184.253906 135.882812 -178.789062 141.25 -171.6875 C 146.625 -164.59375 149.3125 -155.953125 149.3125 -145.765625 L 152.046875 -145.765625 C 152.046875 -155.953125 154.816406 -164.59375 160.359375 -171.6875 C 165.910156 -178.789062 173.375 -184.253906 182.75 -188.078125 C 192.125 -191.898438 202.539062 -193.8125 214 -193.8125 C 229.65625 -193.8125 243.441406 -190.804688 255.359375 -184.796875 C 267.273438 -178.796875 276.644531 -169.878906 283.46875 -158.046875 C 290.300781 -146.222656 293.71875 -131.570312 293.71875 -114.09375 L 293.71875 0 L 247.3125 0 L 247.3125 -113.5625 C 247.3125 -121.75 245.582031 -128.570312 242.125 -134.03125 C 238.664062 -139.488281 234.160156 -143.535156 228.609375 -146.171875 C 223.054688 -148.816406 217.003906 -150.140625 210.453125 -150.140625 C 200.628906 -150.140625 192.078125 -147.132812 184.796875 -141.125 C 177.515625 -135.113281 173.875 -125.925781 173.875 -113.5625 L 173.875 0 L 127.46875 0 L 127.46875 -113.5625 C 127.46875 -121.75 125.738281 -128.570312 122.28125 -134.03125 C 118.832031 -139.488281 114.332031 -143.535156 108.78125 -146.171875 C 103.226562 -148.816406 97.175781 -150.140625 90.625 -150.140625 C 80.800781 -150.140625 72.25 -147.132812 64.96875 -141.125 C 57.6875 -135.113281 54.046875 -125.925781 54.046875 -113.5625 Z M 54.046875 -113.5625 "/></g></g></g></g></g></svg>